<svg width="834" height="54" viewBox="0 0 834 54" fill="none" xmlns="http://www.w3.org/2000/svg">
<rect width="834" height="54" fill="#2B2B2B"/>
<path fill-rule="evenodd" clip-rule="evenodd" d="M54.5 24.3379C54.9142 24.3379 55.25 24.6737 55.25 25.0879V34.5004H68.75V25.0879C68.75 24.6737 69.0858 24.3379 69.5 24.3379C69.9142 24.3379 70.25 24.6737 70.25 25.0879V34.5004C70.25 34.8982 70.092 35.2797 69.8107 35.561C69.5294 35.8424 69.1478 36.0004 68.75 36.0004H55.25C54.8522 36.0004 54.4706 35.8424 54.1893 35.561C53.908 35.2797 53.75 34.8982 53.75 34.5004V25.0879C53.75 24.6737 54.0858 24.3379 54.5 24.3379Z" fill="#A259FF"/>
<path fill-rule="evenodd" clip-rule="evenodd" d="M52.25 18.75C52.25 18.3358 52.5858 18 53 18H71C71.4142 18 71.75 18.3358 71.75 18.75C71.75 19.1642 71.4142 19.5 71 19.5H53C52.5858 19.5 52.25 19.1642 52.25 18.75Z" fill="#A259FF"/>
<path fill-rule="evenodd" clip-rule="evenodd" d="M53 20.25C53.4142 20.25 53.75 20.5858 53.75 21V22.5C53.75 23.0967 53.9871 23.669 54.409 24.091C54.831 24.5129 55.4033 24.75 56 24.75C56.5967 24.75 57.169 24.5129 57.591 24.091C58.0129 23.669 58.25 23.0967 58.25 22.5V21C58.25 20.5858 58.5858 20.25 59 20.25C59.4142 20.25 59.75 20.5858 59.75 21V22.5C59.75 23.4946 59.3549 24.4484 58.6517 25.1516C57.9484 25.8549 56.9946 26.25 56 26.25C55.0054 26.25 54.0516 25.8549 53.3483 25.1516C52.6451 24.4484 52.25 23.4946 52.25 22.5V21C52.25 20.5858 52.5858 20.25 53 20.25Z" fill="#A259FF"/>
<path fill-rule="evenodd" clip-rule="evenodd" d="M59 20.25C59.4142 20.25 59.75 20.5858 59.75 21V22.5C59.75 23.0967 59.9871 23.669 60.409 24.091C60.831 24.5129 61.4033 24.75 62 24.75C62.5967 24.75 63.169 24.5129 63.591 24.091C64.0129 23.669 64.25 23.0967 64.25 22.5V21C64.25 20.5858 64.5858 20.25 65 20.25C65.4142 20.25 65.75 20.5858 65.75 21V22.5C65.75 23.4946 65.3549 24.4484 64.6516 25.1516C63.9484 25.8549 62.9946 26.25 62 26.25C61.0054 26.25 60.0516 25.8549 59.3483 25.1516C58.6451 24.4484 58.25 23.4946 58.25 22.5V21C58.25 20.5858 58.5858 20.25 59 20.25Z" fill="#A259FF"/>
<path fill-rule="evenodd" clip-rule="evenodd" d="M65 20.25C65.4142 20.25 65.75 20.5858 65.75 21V22.5C65.75 23.0967 65.9871 23.669 66.409 24.091C66.831 24.5129 67.4033 24.75 68 24.75C68.5967 24.75 69.169 24.5129 69.591 24.091C70.0129 23.669 70.25 23.0967 70.25 22.5V21C70.25 20.5858 70.5858 20.25 71 20.25C71.4142 20.25 71.75 20.5858 71.75 21V22.5C71.75 23.4946 71.3549 24.4484 70.6516 25.1516C69.9484 25.8549 68.9946 26.25 68 26.25C67.0054 26.25 66.0516 25.8549 65.3484 25.1516C64.6451 24.4484 64.25 23.4946 64.25 22.5V21C64.25 20.5858 64.5858 20.25 65 20.25Z" fill="#A259FF"/>
<path d="M88.61 31.9102H88.907V21.4492H91.085V32.9992H86.828L85.475 22.5382H85.178V32.9992H83V21.4492H87.257L88.61 31.9102Z" fill="white"/>
<path d="M93.5485 21.4492H100.941V23.5282H95.7265V26.1682H100.842V28.2472H95.7265V32.9992H93.5485V21.4492Z" fill="white"/>
<path d="M103.091 21.4492H111.407V23.5282H108.338V32.9992H106.16V23.5282H103.091V21.4492Z" fill="white"/>
<path d="M122.769 21.4492H126.597L127.257 30.1282V31.8112H127.653V30.1282L128.313 21.4492H132.141V32.9992H130.161V25.2772L130.359 22.6372H129.963L129.105 32.9992H125.838L124.947 22.6372H124.551L124.749 25.2772V32.9992H122.769V21.4492Z" fill="white"/>
<path d="M139.092 31.8112C138.872 32.3282 138.564 32.6967 138.168 32.9167C137.772 33.1257 137.31 33.2302 136.782 33.2302C136.287 33.2302 135.82 33.1367 135.38 32.9497C134.951 32.7627 134.571 32.4877 134.241 32.1247C133.911 31.7617 133.647 31.3217 133.449 30.8047C133.262 30.2877 133.169 29.6992 133.169 29.0392V28.7752C133.169 28.1262 133.262 27.5432 133.449 27.0262C133.636 26.5092 133.889 26.0692 134.208 25.7062C134.527 25.3432 134.896 25.0682 135.314 24.8812C135.743 24.6832 136.199 24.5842 136.683 24.5842C137.266 24.5842 137.734 24.6832 138.086 24.8812C138.449 25.0792 138.735 25.3872 138.944 25.8052H139.241V24.8152H141.32V30.5242C141.32 30.8542 141.468 31.0192 141.765 31.0192H142.079V32.9992H140.66C140.286 32.9992 139.978 32.8892 139.736 32.6692C139.505 32.4492 139.389 32.1632 139.389 31.8112H139.092ZM137.244 31.2502C137.849 31.2502 138.333 31.0522 138.696 30.6562C139.059 30.2492 139.241 29.6992 139.241 29.0062V28.8082C139.241 28.1152 139.059 27.5707 138.696 27.1747C138.333 26.7677 137.849 26.5642 137.244 26.5642C136.639 26.5642 136.155 26.7677 135.792 27.1747C135.429 27.5707 135.248 28.1152 135.248 28.8082V29.0062C135.248 29.6992 135.429 30.2492 135.792 30.6562C136.155 31.0522 136.639 31.2502 137.244 31.2502Z" fill="white"/>
<path d="M143.503 24.8152H146.968V26.0032H147.265C147.419 25.5522 147.677 25.2057 148.04 24.9637C148.414 24.7107 148.86 24.5842 149.377 24.5842C150.191 24.5842 150.845 24.8427 151.34 25.3597C151.835 25.8657 152.083 26.6412 152.083 27.6862V28.0492L149.938 28.2472V28.0162C149.938 27.5652 149.822 27.2077 149.591 26.9437C149.36 26.6687 149.014 26.5312 148.552 26.5312C148.09 26.5312 147.727 26.6907 147.463 27.0097C147.199 27.3287 147.067 27.7852 147.067 28.3792V31.0192H148.948V32.9992H143.305V31.0192H144.988V26.7952H143.503V24.8152Z" fill="white"/>
<path d="M156.741 27.8182H157.137L159.315 24.8152H161.592V24.9142L158.952 28.6597V28.9567L161.856 32.9002V32.9992H159.48L157.137 29.7982H156.741V32.9992H154.662V21.4492H156.741V27.8182Z" fill="white"/>
<path d="M165.936 29.5837C165.947 29.8257 166.002 30.0512 166.101 30.2602C166.211 30.4582 166.354 30.6342 166.53 30.7882C166.717 30.9312 166.926 31.0467 167.157 31.1347C167.399 31.2117 167.652 31.2502 167.916 31.2502C168.433 31.2502 168.829 31.1622 169.104 30.9862C169.379 30.7992 169.577 30.5792 169.698 30.3262L171.48 31.3162C171.381 31.5252 171.244 31.7452 171.068 31.9762C170.892 32.1962 170.661 32.3997 170.375 32.5867C170.1 32.7737 169.759 32.9277 169.352 33.0487C168.956 33.1697 168.488 33.2302 167.949 33.2302C167.333 33.2302 166.772 33.1312 166.266 32.9332C165.76 32.7352 165.32 32.4492 164.946 32.0752C164.583 31.7012 164.297 31.2447 164.088 30.7057C163.89 30.1667 163.791 29.5562 163.791 28.8742V28.7752C163.791 28.1482 163.896 27.5762 164.105 27.0592C164.325 26.5422 164.622 26.1022 164.996 25.7392C165.37 25.3762 165.804 25.0957 166.299 24.8977C166.805 24.6887 167.344 24.5842 167.916 24.5842C168.62 24.5842 169.225 24.7107 169.731 24.9637C170.237 25.2057 170.655 25.5192 170.985 25.9042C171.315 26.2782 171.557 26.6962 171.711 27.1582C171.865 27.6092 171.942 28.0492 171.942 28.4782V29.5837H165.936ZM167.9 26.4652C167.372 26.4652 166.943 26.6027 166.613 26.8777C166.283 27.1417 166.068 27.4497 165.969 27.8017H169.83C169.764 27.4167 169.555 27.0977 169.203 26.8447C168.862 26.5917 168.428 26.4652 167.9 26.4652Z" fill="white"/>
<path d="M173.977 24.8152H176.402V21.4492H178.481V24.8152H181.435V26.7952H178.481V30.5242C178.481 30.8542 178.63 31.0192 178.927 31.0192H181.138V32.9992H177.673C177.299 32.9992 176.991 32.8782 176.749 32.6362C176.518 32.3942 176.402 32.0862 176.402 31.7122V26.7952H173.977V24.8152Z" fill="white"/>
<path d="M185.961 36.2992H183.882V24.8152H185.961V26.0032H186.258C186.478 25.5522 186.797 25.2057 187.215 24.9637C187.633 24.7107 188.166 24.5842 188.815 24.5842C189.299 24.5842 189.756 24.6777 190.185 24.8647C190.625 25.0517 191.004 25.3267 191.323 25.6897C191.653 26.0417 191.912 26.4762 192.099 26.9932C192.297 27.5102 192.396 28.0987 192.396 28.7587V29.0557C192.396 29.7267 192.302 30.3207 192.115 30.8377C191.928 31.3547 191.675 31.7947 191.356 32.1577C191.037 32.5097 190.658 32.7792 190.218 32.9662C189.789 33.1422 189.321 33.2302 188.815 33.2302C188.441 33.2302 188.117 33.1917 187.842 33.1147C187.567 33.0377 187.325 32.9332 187.116 32.8012C186.918 32.6692 186.747 32.5207 186.604 32.3557C186.472 32.1797 186.357 31.9982 186.258 31.8112H185.961V36.2992ZM188.139 31.2502C188.788 31.2502 189.31 31.0522 189.706 30.6562C190.113 30.2492 190.317 29.6992 190.317 29.0062V28.8082C190.317 28.1152 190.113 27.5707 189.706 27.1747C189.31 26.7677 188.788 26.5642 188.139 26.5642C187.49 26.5642 186.962 26.7732 186.555 27.1912C186.159 27.5982 185.961 28.1372 185.961 28.8082V29.0062C185.961 29.6772 186.159 30.2217 186.555 30.6397C186.962 31.0467 187.49 31.2502 188.139 31.2502Z" fill="white"/>
<path d="M194.364 31.0192H197.235V23.4292H194.463V21.4492H199.314V31.0192H201.987V32.9992H194.364V31.0192Z" fill="white"/>
<path d="M209.813 31.8112C209.593 32.3282 209.285 32.6967 208.889 32.9167C208.493 33.1257 208.031 33.2302 207.503 33.2302C207.008 33.2302 206.541 33.1367 206.101 32.9497C205.672 32.7627 205.292 32.4877 204.962 32.1247C204.632 31.7617 204.368 31.3217 204.17 30.8047C203.983 30.2877 203.89 29.6992 203.89 29.0392V28.7752C203.89 28.1262 203.983 27.5432 204.17 27.0262C204.357 26.5092 204.61 26.0692 204.929 25.7062C205.248 25.3432 205.617 25.0682 206.035 24.8812C206.464 24.6832 206.92 24.5842 207.404 24.5842C207.987 24.5842 208.455 24.6832 208.807 24.8812C209.17 25.0792 209.456 25.3872 209.665 25.8052H209.962V24.8152H212.041V30.5242C212.041 30.8542 212.189 31.0192 212.486 31.0192H212.8V32.9992H211.381C211.007 32.9992 210.699 32.8892 210.457 32.6692C210.226 32.4492 210.11 32.1632 210.11 31.8112H209.813ZM207.965 31.2502C208.57 31.2502 209.054 31.0522 209.417 30.6562C209.78 30.2492 209.962 29.6992 209.962 29.0062V28.8082C209.962 28.1152 209.78 27.5707 209.417 27.1747C209.054 26.7677 208.57 26.5642 207.965 26.5642C207.36 26.5642 206.876 26.7677 206.513 27.1747C206.15 27.5707 205.969 28.1152 205.969 28.8082V29.0062C205.969 29.6992 206.15 30.2492 206.513 30.6562C206.876 31.0522 207.36 31.2502 207.965 31.2502Z" fill="white"/>
<path d="M222.606 29.9962C222.419 30.9642 221.973 31.7452 221.269 32.3392C220.576 32.9332 219.647 33.2302 218.481 33.2302C217.876 33.2302 217.309 33.1367 216.781 32.9497C216.264 32.7627 215.813 32.4932 215.428 32.1412C215.043 31.7892 214.741 31.3547 214.521 30.8377C214.301 30.3207 214.191 29.7322 214.191 29.0722V28.8742C214.191 28.2142 214.301 27.6202 214.521 27.0922C214.741 26.5642 215.043 26.1132 215.428 25.7392C215.824 25.3652 216.281 25.0792 216.798 24.8812C217.326 24.6832 217.887 24.5842 218.481 24.5842C219.625 24.5842 220.549 24.8812 221.253 25.4752C221.968 26.0692 222.419 26.8502 222.606 27.8182L220.56 28.3462C220.494 27.8622 220.285 27.4442 219.933 27.0922C219.581 26.7402 219.086 26.5642 218.448 26.5642C218.151 26.5642 217.87 26.6192 217.606 26.7292C217.342 26.8392 217.111 26.9987 216.913 27.2077C216.715 27.4057 216.556 27.6532 216.435 27.9502C216.325 28.2362 216.27 28.5607 216.27 28.9237V29.0227C216.27 29.3857 216.325 29.7102 216.435 29.9962C216.556 30.2712 216.715 30.5022 216.913 30.6892C217.111 30.8762 217.342 31.0192 217.606 31.1182C217.87 31.2062 218.151 31.2502 218.448 31.2502C219.086 31.2502 219.57 31.0907 219.9 30.7717C220.241 30.4527 220.461 30.0237 220.56 29.4847L222.606 29.9962Z" fill="white"/>
<path d="M226.554 29.5837C226.565 29.8257 226.62 30.0512 226.719 30.2602C226.829 30.4582 226.972 30.6342 227.148 30.7882C227.335 30.9312 227.544 31.0467 227.775 31.1347C228.017 31.2117 228.27 31.2502 228.534 31.2502C229.051 31.2502 229.447 31.1622 229.722 30.9862C229.997 30.7992 230.195 30.5792 230.316 30.3262L232.098 31.3162C231.999 31.5252 231.862 31.7452 231.686 31.9762C231.51 32.1962 231.279 32.3997 230.993 32.5867C230.718 32.7737 230.377 32.9277 229.97 33.0487C229.574 33.1697 229.106 33.2302 228.567 33.2302C227.951 33.2302 227.39 33.1312 226.884 32.9332C226.378 32.7352 225.938 32.4492 225.564 32.0752C225.201 31.7012 224.915 31.2447 224.706 30.7057C224.508 30.1667 224.409 29.5562 224.409 28.8742V28.7752C224.409 28.1482 224.514 27.5762 224.723 27.0592C224.943 26.5422 225.24 26.1022 225.614 25.7392C225.988 25.3762 226.422 25.0957 226.917 24.8977C227.423 24.6887 227.962 24.5842 228.534 24.5842C229.238 24.5842 229.843 24.7107 230.349 24.9637C230.855 25.2057 231.273 25.5192 231.603 25.9042C231.933 26.2782 232.175 26.6962 232.329 27.1582C232.483 27.6092 232.56 28.0492 232.56 28.4782V29.5837H226.554ZM228.518 26.4652C227.99 26.4652 227.561 26.6027 227.231 26.8777C226.901 27.1417 226.686 27.4497 226.587 27.8017H230.448C230.382 27.4167 230.173 27.0977 229.821 26.8447C229.48 26.5917 229.046 26.4652 228.518 26.4652Z" fill="white"/>
<path fill-rule="evenodd" clip-rule="evenodd" d="M763 27C763 26.5858 763.336 26.25 763.75 26.25H780.25C780.664 26.25 781 26.5858 781 27C781 27.4142 780.664 27.75 780.25 27.75H763.75C763.336 27.75 763 27.4142 763 27Z" fill="white"/>
<path fill-rule="evenodd" clip-rule="evenodd" d="M763 21C763 20.5858 763.336 20.25 763.75 20.25H775C775.414 20.25 775.75 20.5858 775.75 21C775.75 21.4142 775.414 21.75 775 21.75H763.75C763.336 21.75 763 21.4142 763 21Z" fill="white"/>
<path fill-rule="evenodd" clip-rule="evenodd" d="M763 33C763 32.5858 763.336 32.25 763.75 32.25H775C775.414 32.25 775.75 32.5858 775.75 33C775.75 33.4142 775.414 33.75 775 33.75H763.75C763.336 33.75 763 33.4142 763 33Z" fill="white"/>
</svg>
